<?xml version="1.0" encoding="utf-8"?>
<!-- Generator: Adobe Illustrator 16.0.0, SVG Export Plug-In . SVG Version: 6.00 Build 0)  -->
<!DOCTYPE svg PUBLIC "-//W3C//DTD SVG 1.1//EN" "http://www.w3.org/Graphics/SVG/1.1/DTD/svg11.dtd">
<svg version="1.1" id="Layer_1" xmlns="http://www.w3.org/2000/svg" xmlns:xlink="http://www.w3.org/1999/xlink" x="0px" y="0px"
	 width="1400px" height="980px" viewBox="0 0 1400 980" enable-background="new 0 0 1400 980" xml:space="preserve">
<g>
	<g>
		<g>
			<rect fill="#FFFFFF" width="1400" height="980"/>
		</g>
	</g>
	<g>
		<polygon fill="#FFF9CF" points="1064.8,158.6 1016.6,106.6 903.7,106.6 903.7,158.6 903.7,359.5 1206.6,359.5 1206.6,158.6 		"/>
		<path d="M1206.6,361.4H903.7c-1,0-1.9-0.8-1.9-1.9V106.6c0-1,0.8-1.9,1.9-1.9h112.9c0.5,0,1,0.2,1.4,0.6l47.7,51.4h141
			c1,0,1.9,0.8,1.9,1.9v200.9C1208.5,360.5,1207.6,361.4,1206.6,361.4z M905.6,357.6h299.1V160.5h-139.9c-0.5,0-1-0.2-1.4-0.6
			l-47.7-51.4H905.6V357.6z"/>
	</g>
	<g>
		<rect x="920.1" y="437.4" fill="#F1F2F2" width="36.3" height="36.3"/>
	</g>
	<g>
		<rect x="854.9" y="437.4" fill="#F1F2F2" width="36.3" height="36.3"/>
	</g>
	<g>
		<rect x="920.1" y="379.3" fill="#F1F2F2" width="36.3" height="36.3"/>
	</g>
	<g>
		<rect x="980.2" y="437.4" fill="#F1F2F2" width="36.3" height="36.3"/>
	</g>
	<g>
		<rect x="1040.4" y="437.4" fill="#F1F2F2" width="36.3" height="36.3"/>
	</g>
	<g>
		<g>
			<path d="M1131.2,652.1H656.1c-1,0-1.9-0.8-1.9-1.9V496.4c0-1,0.8-1.9,1.9-1.9h475.1c1,0,1.9,0.8,1.9,1.9v153.9
				C1133.1,651.3,1132.2,652.1,1131.2,652.1z M658,648.4h471.3V498.3H658V648.4z"/>
		</g>
		<g>
			<rect x="656.1" y="496.4" fill="#E6E7E8" width="475.1" height="153.9"/>
			<path d="M1131.2,652.1H656.1c-1,0-1.9-0.8-1.9-1.9V496.4c0-1,0.8-1.9,1.9-1.9h475.1c1,0,1.9,0.8,1.9,1.9v153.9
				C1133.1,651.3,1132.2,652.1,1131.2,652.1z M658,648.4h471.3V498.3H658V648.4z"/>
		</g>
	</g>
	<g>
		<rect x="676.2" y="515" fill="#FFFFFF" width="27.5" height="26.5"/>
		<path d="M703.8,543.4h-27.5c-1,0-1.9-0.8-1.9-1.9V515c0-1,0.8-1.9,1.9-1.9h27.5c1,0,1.9,0.8,1.9,1.9v26.5
			C705.6,542.5,704.8,543.4,703.8,543.4z M678.1,539.6h23.8v-22.7h-23.8V539.6z"/>
	</g>
	<g>
		<rect x="721.7" y="515" fill="#FFFFFF" width="27.5" height="26.5"/>
		<path d="M749.3,543.4h-27.5c-1,0-1.9-0.8-1.9-1.9V515c0-1,0.8-1.9,1.9-1.9h27.5c1,0,1.9,0.8,1.9,1.9v26.5
			C751.1,542.5,750.3,543.4,749.3,543.4z M723.6,539.6h23.8v-22.7h-23.8V539.6z"/>
	</g>
	<g>
		<rect x="767.2" y="515" fill="#FFFFFF" width="27.6" height="26.5"/>
		<path d="M794.8,543.4h-27.6c-1,0-1.9-0.8-1.9-1.9V515c0-1,0.8-1.9,1.9-1.9h27.6c1,0,1.9,0.8,1.9,1.9v26.5
			C796.6,542.5,795.8,543.4,794.8,543.4z M769.1,539.6h23.8v-22.7h-23.8V539.6z"/>
	</g>
	<g>
		<rect x="812.7" y="515" fill="#FFFFFF" width="27.5" height="26.5"/>
		<path d="M840.2,543.4h-27.5c-1,0-1.9-0.8-1.9-1.9V515c0-1,0.8-1.9,1.9-1.9h27.5c1,0,1.9,0.8,1.9,1.9v26.5
			C842.1,542.5,841.3,543.4,840.2,543.4z M814.6,539.6h23.8v-22.7h-23.8V539.6z"/>
	</g>
	<g>
		<rect x="858.2" y="515" fill="#FFFFFF" width="27.5" height="26.5"/>
		<path d="M885.7,543.4h-27.5c-1,0-1.9-0.8-1.9-1.9V515c0-1,0.8-1.9,1.9-1.9h27.5c1,0,1.9,0.8,1.9,1.9v26.5
			C887.6,542.5,886.8,543.4,885.7,543.4z M860.1,539.6h23.8v-22.7h-23.8V539.6z"/>
	</g>
	<g>
		<rect x="903.7" y="515" fill="#FFFFFF" width="27.5" height="26.5"/>
		<path d="M931.2,543.4h-27.5c-1,0-1.9-0.8-1.9-1.9V515c0-1,0.8-1.9,1.9-1.9h27.5c1,0,1.9,0.8,1.9,1.9v26.5
			C933.1,542.5,932.3,543.4,931.2,543.4z M905.6,539.6h23.8v-22.7h-23.8V539.6z"/>
	</g>
	<g>
		<rect x="949.2" y="515" fill="#FFFFFF" width="27.5" height="26.5"/>
		<path d="M976.7,543.4h-27.5c-1,0-1.9-0.8-1.9-1.9V515c0-1,0.8-1.9,1.9-1.9h27.5c1,0,1.9,0.8,1.9,1.9v26.5
			C978.6,542.5,977.8,543.4,976.7,543.4z M951.1,539.6h23.8v-22.7h-23.8V539.6z"/>
	</g>
	<g>
		<rect x="994.7" y="515" fill="#FFFFFF" width="27.5" height="26.5"/>
		<path d="M1022.2,543.4h-27.5c-1,0-1.9-0.8-1.9-1.9V515c0-1,0.8-1.9,1.9-1.9h27.5c1,0,1.9,0.8,1.9,1.9v26.5
			C1024.1,542.5,1023.3,543.4,1022.2,543.4z M996.6,539.6h23.8v-22.7h-23.8V539.6z"/>
	</g>
	<g>
		<rect x="1040.2" y="515" fill="#FFFFFF" width="27.5" height="26.5"/>
		<path d="M1067.7,543.4h-27.5c-1,0-1.9-0.8-1.9-1.9V515c0-1,0.8-1.9,1.9-1.9h27.5c1,0,1.9,0.8,1.9,1.9v26.5
			C1069.6,542.5,1068.8,543.4,1067.7,543.4z M1042.1,539.6h23.8v-22.7h-23.8V539.6z"/>
	</g>
	<g>
		<rect x="1040.2" y="605.1" fill="#FFFFFF" width="27.5" height="26.5"/>
		<path d="M1067.7,633.5h-27.5c-1,0-1.9-0.8-1.9-1.9v-26.5c0-1,0.8-1.9,1.9-1.9h27.5c1,0,1.9,0.8,1.9,1.9v26.5
			C1069.6,632.7,1068.8,633.5,1067.7,633.5z M1042.1,629.8h23.8V607h-23.8V629.8z"/>
	</g>
	<g>
		<rect x="1085.7" y="515" fill="#FFFFFF" width="27.5" height="26.5"/>
		<path d="M1113.2,543.4h-27.5c-1,0-1.9-0.8-1.9-1.9V515c0-1,0.8-1.9,1.9-1.9h27.5c1,0,1.9,0.8,1.9,1.9v26.5
			C1115.1,542.5,1114.3,543.4,1113.2,543.4z M1087.6,539.6h23.8v-22.7h-23.8V539.6z"/>
	</g>
	<g>
		<rect x="676.2" y="560.1" fill="#FFFFFF" width="27.5" height="26.5"/>
		<path d="M703.8,588.4h-27.5c-1,0-1.9-0.8-1.9-1.9v-26.5c0-1,0.8-1.9,1.9-1.9h27.5c1,0,1.9,0.8,1.9,1.9v26.5
			C705.6,587.6,704.8,588.4,703.8,588.4z M678.1,584.7h23.8v-22.7h-23.8V584.7z"/>
	</g>
	<g>
		<rect x="721.7" y="560.1" fill="#FFFFFF" width="27.5" height="26.5"/>
		<path d="M749.3,588.4h-27.5c-1,0-1.9-0.8-1.9-1.9v-26.5c0-1,0.8-1.9,1.9-1.9h27.5c1,0,1.9,0.8,1.9,1.9v26.5
			C751.1,587.6,750.3,588.4,749.3,588.4z M723.6,584.7h23.8v-22.7h-23.8V584.7z"/>
	</g>
	<g>
		<rect x="767.2" y="560.1" fill="#FFFFFF" width="27.6" height="26.5"/>
		<path d="M794.8,588.4h-27.6c-1,0-1.9-0.8-1.9-1.9v-26.5c0-1,0.8-1.9,1.9-1.9h27.6c1,0,1.9,0.8,1.9,1.9v26.5
			C796.6,587.6,795.8,588.4,794.8,588.4z M769.1,584.7h23.8v-22.7h-23.8V584.7z"/>
	</g>
	<g>
		<rect x="812.7" y="560.1" fill="#FFFFFF" width="27.5" height="26.5"/>
		<path d="M840.2,588.4h-27.5c-1,0-1.9-0.8-1.9-1.9v-26.5c0-1,0.8-1.9,1.9-1.9h27.5c1,0,1.9,0.8,1.9,1.9v26.5
			C842.1,587.6,841.3,588.4,840.2,588.4z M814.6,584.7h23.8v-22.7h-23.8V584.7z"/>
	</g>
	<g>
		<rect x="858.2" y="560.1" fill="#FFFFFF" width="27.5" height="26.5"/>
		<path d="M885.7,588.4h-27.5c-1,0-1.9-0.8-1.9-1.9v-26.5c0-1,0.8-1.9,1.9-1.9h27.5c1,0,1.9,0.8,1.9,1.9v26.5
			C887.6,587.6,886.8,588.4,885.7,588.4z M860.1,584.7h23.8v-22.7h-23.8V584.7z"/>
	</g>
	<g>
		<rect x="903.7" y="560.1" fill="#FFFFFF" width="27.6" height="26.5"/>
		<path d="M931.3,588.4h-27.6c-1,0-1.9-0.8-1.9-1.9v-26.5c0-1,0.8-1.9,1.9-1.9h27.6c1,0,1.9,0.8,1.9,1.9v26.5
			C933.1,587.6,932.3,588.4,931.3,588.4z M905.6,584.7h23.8v-22.7h-23.8V584.7z"/>
	</g>
	<g>
		<rect x="949.2" y="560.1" fill="#FFFFFF" width="27.5" height="26.5"/>
		<path d="M976.7,588.4h-27.5c-1,0-1.9-0.8-1.9-1.9v-26.5c0-1,0.8-1.9,1.9-1.9h27.5c1,0,1.9,0.8,1.9,1.9v26.5
			C978.6,587.6,977.8,588.4,976.7,588.4z M951.1,584.7h23.8v-22.7h-23.8V584.7z"/>
	</g>
	<g>
		<rect x="994.7" y="560.1" fill="#FFFFFF" width="27.5" height="26.5"/>
		<path d="M1022.2,588.4h-27.5c-1,0-1.9-0.8-1.9-1.9v-26.5c0-1,0.8-1.9,1.9-1.9h27.5c1,0,1.9,0.8,1.9,1.9v26.5
			C1024.1,587.6,1023.3,588.4,1022.2,588.4z M996.6,584.7h23.8v-22.7h-23.8V584.7z"/>
	</g>
	<g>
		<rect x="676.2" y="605.1" fill="#FFFFFF" width="73" height="26.5"/>
		<path d="M749.3,633.5h-73c-1,0-1.9-0.8-1.9-1.9v-26.5c0-1,0.8-1.9,1.9-1.9h73c1,0,1.9,0.8,1.9,1.9v26.5
			C751.1,632.7,750.3,633.5,749.3,633.5z M678.1,629.8h69.3V607h-69.3V629.8z"/>
	</g>
	<g>
		<rect x="767.2" y="605.1" fill="#FFFFFF" width="209.6" height="26.5"/>
		<path d="M976.7,633.5H767.2c-1,0-1.9-0.8-1.9-1.9v-26.5c0-1,0.8-1.9,1.9-1.9h209.6c1,0,1.9,0.8,1.9,1.9v26.5
			C978.6,632.7,977.8,633.5,976.7,633.5z M769.1,629.8h205.8V607H769.1V629.8z"/>
	</g>
	<g>
		<polygon fill="#FFFFFF" points="1091.2,560.1 1085.7,560.1 1040.2,560.1 1040.2,586.6 1085.7,586.6 1085.7,631.6 1113.2,631.6 
			1113.2,586.6 1113.2,575.4 1113.2,560.1 		"/>
		<path d="M1113.2,633.5h-27.5c-1,0-1.9-0.8-1.9-1.9v-43.2h-43.6c-1,0-1.9-0.8-1.9-1.9v-26.5c0-1,0.8-1.9,1.9-1.9h73
			c1,0,1.9,0.8,1.9,1.9v71.6C1115.1,632.7,1114.3,633.5,1113.2,633.5z M1087.6,629.8h23.8v-67.8h-69.3v22.7h43.6
			c1,0,1.9,0.8,1.9,1.9V629.8z"/>
	</g>
	<g>
		<rect x="994.7" y="605.1" fill="#FFFFFF" width="27.5" height="26.5"/>
		<path d="M1022.2,633.5h-27.5c-1,0-1.9-0.8-1.9-1.9v-26.5c0-1,0.8-1.9,1.9-1.9h27.5c1,0,1.9,0.8,1.9,1.9v26.5
			C1024.1,632.7,1023.3,633.5,1022.2,633.5z M996.6,629.8h23.8V607h-23.8V629.8z"/>
	</g>
	<g>
		<rect x="345.9" y="307.1" fill="#FFFFFF" width="496.6" height="317.1"/>
		<path d="M842.5,626.1H345.9c-1,0-1.9-0.8-1.9-1.9V307.1c0-1,0.8-1.9,1.9-1.9h496.6c1,0,1.9,0.8,1.9,1.9v317.1
			C844.4,625.3,843.5,626.1,842.5,626.1z M347.8,622.3h492.8V309H347.8V622.3z"/>
	</g>
	<g>
		<rect x="368.2" y="329.3" fill="#FFC2BE" width="452.1" height="272.6"/>
		<path d="M820.3,603.9H368.2c-1,0-1.9-0.8-1.9-1.9V329.3c0-1,0.8-1.9,1.9-1.9h452.1c1,0,1.9,0.8,1.9,1.9V602
			C822.1,603,821.3,603.9,820.3,603.9z M370.1,600.1h448.3V331.2H370.1V600.1z"/>
	</g>
	<g>
		<path fill="#808285" d="M345.9,624.2v32c0,12.2,10,22.3,22.3,22.3h452.1c12.2,0,22.3-10,22.3-22.3v-32H345.9z"/>
		<path d="M820.3,680.4H368.2c-13.3,0-24.1-10.8-24.1-24.1v-32c0-1,0.8-1.9,1.9-1.9h496.6c1,0,1.9,0.8,1.9,1.9v32
			C844.4,669.5,833.6,680.4,820.3,680.4z M347.8,626.1v30.1c0,11.2,9.1,20.4,20.4,20.4h452.1c11.2,0,20.4-9.1,20.4-20.4v-30.1H347.8
			z"/>
	</g>
	<g>
		<rect x="568.3" y="642.8" fill="#FFFFFF" width="51.9" height="17.2"/>
		<path d="M620.2,661.8h-51.9c-1,0-1.9-0.8-1.9-1.9v-17.2c0-1,0.8-1.9,1.9-1.9h51.9c1,0,1.9,0.8,1.9,1.9v17.2
			C622.1,661,621.2,661.8,620.2,661.8z M570.1,658.1h48.2v-13.4h-48.2V658.1z"/>
	</g>
	<g>
		<g>
			<polygon fill="#E6E7E8" points="659.6,711.8 659.6,678.5 594.2,678.5 528.8,678.5 528.8,711.8 502.2,738.4 686.2,738.4 			"/>
			<path d="M686.2,740.2h-184c-0.8,0-1.4-0.5-1.7-1.2c-0.3-0.7-0.1-1.5,0.4-2l26-26v-32.5c0-1,0.8-1.9,1.9-1.9h130.9
				c1,0,1.9,0.8,1.9,1.9V711l26,26c0.5,0.5,0.7,1.3,0.4,2C687.7,739.8,687,740.2,686.2,740.2z M506.7,736.5h175l-23.4-23.4
				c-0.4-0.4-0.6-0.8-0.6-1.3v-31.4H530.7v31.4c0,0.5-0.2,1-0.6,1.3L506.7,736.5z"/>
		</g>
		<g>
			<polygon fill="#FFFFFF" points="502.2,738.4 502.2,751.5 594.2,751.5 686.2,751.5 686.2,738.4 			"/>
			<path d="M686.2,753.4h-184c-1,0-1.9-0.8-1.9-1.9v-13.1c0-1,0.8-1.9,1.9-1.9h184c1,0,1.9,0.8,1.9,1.9v13.1
				C688.1,752.5,687.3,753.4,686.2,753.4z M504.1,749.6h180.3v-9.4H504.1V749.6z"/>
		</g>
	</g>
	<g>
		<line fill="#FFFFFF" x1="528.8" y1="711.8" x2="596.3" y2="711.8"/>
		<path d="M596.3,713.7h-67.5c-1,0-1.9-0.8-1.9-1.9s0.8-1.9,1.9-1.9h67.5c1,0,1.9,0.8,1.9,1.9S597.3,713.7,596.3,713.7z"/>
	</g>
	<g>
		<path d="M903.7,498.3c-1,0-1.9-0.8-1.9-1.9v-97h-59.3c-1,0-1.9-0.8-1.9-1.9c0-1,0.8-1.9,1.9-1.9h61.2c1,0,1.9,0.8,1.9,1.9v98.9
			C905.6,497.4,904.7,498.3,903.7,498.3z"/>
	</g>
	<g>
		<rect x="385.8" y="346.2" fill="#B0F2FF" width="416.8" height="51.3"/>
		<path d="M802.6,399.4H385.8c-1,0-1.9-0.8-1.9-1.9v-51.3c0-1,0.8-1.9,1.9-1.9h416.8c1,0,1.9,0.8,1.9,1.9v51.3
			C804.5,398.5,803.7,399.4,802.6,399.4z M387.7,395.6h413.1v-47.5H387.7V395.6z"/>
	</g>
	<g>
		<path fill="#FFFFFF" d="M421,371.8c0,5.9-4.8,10.7-10.7,10.7s-10.7-4.8-10.7-10.7c0-5.9,4.8-10.7,10.7-10.7S421,366,421,371.8z"/>
		<path d="M410.4,384.4c-6.9,0-12.5-5.6-12.5-12.5c0-6.9,5.6-12.5,12.5-12.5c6.9,0,12.5,5.6,12.5,12.5
			C422.9,378.8,417.3,384.4,410.4,384.4z M410.4,363.1c-4.8,0-8.8,3.9-8.8,8.8c0,4.8,3.9,8.8,8.8,8.8c4.8,0,8.8-3.9,8.8-8.8
			C419.2,367,415.2,363.1,410.4,363.1z"/>
	</g>
	<g>
		<path fill="#FFFFFF" d="M456.7,371.8c0,5.9-4.8,10.7-10.7,10.7c-5.9,0-10.7-4.8-10.7-10.7c0-5.9,4.8-10.7,10.7-10.7
			C451.9,361.2,456.7,366,456.7,371.8z"/>
		<path d="M446,384.4c-6.9,0-12.5-5.6-12.5-12.5c0-6.9,5.6-12.5,12.5-12.5c6.9,0,12.5,5.6,12.5,12.5
			C458.5,378.8,452.9,384.4,446,384.4z M446,363.1c-4.8,0-8.8,3.9-8.8,8.8c0,4.8,3.9,8.8,8.8,8.8c4.8,0,8.8-3.9,8.8-8.8
			C454.8,367,450.8,363.1,446,363.1z"/>
	</g>
	<g>
		<path d="M785,385.8c-0.5,0-1-0.2-1.3-0.6l-24.1-24.1c-0.7-0.7-0.7-1.9,0-2.7c0.7-0.7,1.9-0.7,2.7,0l24.1,24.1
			c0.7,0.7,0.7,1.9,0,2.7C786,385.6,785.5,385.8,785,385.8z"/>
	</g>
	<g>
		<path d="M760.9,385.8c-0.5,0-1-0.2-1.3-0.6c-0.7-0.7-0.7-1.9,0-2.7l24.1-24.1c0.7-0.7,1.9-0.7,2.7,0c0.7,0.7,0.7,1.9,0,2.7
			l-24.1,24.1C761.9,385.6,761.4,385.8,760.9,385.8z"/>
	</g>
	<g>
		<rect x="385.8" y="421.1" fill="#E6AEAA" width="416.8" height="20.2"/>
	</g>
	<g>
		<rect x="385.8" y="455.6" fill="#E6AEAA" width="416.8" height="20.2"/>
	</g>
	<g>
		<rect x="385.8" y="490" fill="#E6AEAA" width="416.8" height="20.2"/>
	</g>
	<g>
		<rect x="385.8" y="524.4" fill="#E6AEAA" width="416.8" height="20.2"/>
	</g>
	<g>
		<rect x="385.8" y="558.9" fill="#E6AEAA" width="416.8" height="20.2"/>
	</g>
	<g>
		<g>
			<path d="M288.2,361.4h-191c-15.4,0-27.9-12.5-27.9-27.9v-11.6c0-15.4,12.5-27.9,27.9-27.9h191c1,0,1.9,0.8,1.9,1.9v63.7
				C290.1,360.5,289.3,361.4,288.2,361.4z M97.2,297.7c-13.3,0-24.2,10.8-24.2,24.2v11.6c0,13.3,10.8,24.2,24.2,24.2h189.2v-59.9
				H97.2z"/>
		</g>
		<g>
			<g>
				<polygon fill="#64C3D9" points="97.2,359.5 97.2,575.1 288.2,575.1 288.2,546.9 288.2,511.4 288.2,359.5 				"/>
				<path d="M288.2,577h-191c-1,0-1.9-0.8-1.9-1.9V359.5c0-1,0.8-1.9,1.9-1.9h191c1,0,1.9,0.8,1.9,1.9v215.6
					C290.1,576.2,289.3,577,288.2,577z M99.1,573.2h187.3V361.4H99.1V573.2z"/>
			</g>
			<g>
				<path fill="#64C3D9" d="M71.1,333.4v204.1v9.4v2.2c0,14.4,11.7,26,26,26V359.5C82.8,359.5,71.1,347.8,71.1,333.4z"/>
				<path d="M97.2,577c-15.4,0-27.9-12.5-27.9-27.9V333.4c0-1,0.8-1.9,1.9-1.9s1.9,0.8,1.9,1.9c0,13.3,10.8,24.2,24.2,24.2
					c1,0,1.9,0.8,1.9,1.9v215.6C99.1,576.2,98.2,577,97.2,577z M73,347.4v201.7c0,12.7,9.8,23.1,22.3,24.1V361.3
					C85.8,360.7,77.6,355.2,73,347.4z"/>
			</g>
		</g>
		<g>
			<rect x="122.5" y="390.6" fill="#5AB0C4" width="52.8" height="15.9"/>
			<path d="M175.3,408.4h-52.8c-1,0-1.9-0.8-1.9-1.9v-15.9c0-1,0.8-1.9,1.9-1.9h52.8c1,0,1.9,0.8,1.9,1.9v15.9
				C177.2,407.6,176.4,408.4,175.3,408.4z M124.4,404.6h49.1v-12.2h-49.1V404.6z"/>
		</g>
		<g>
			<rect x="211.2" y="456.2" fill="#5AB0C4" width="52.8" height="15.9"/>
			<path d="M264,474h-52.8c-1,0-1.9-0.8-1.9-1.9v-15.9c0-1,0.8-1.9,1.9-1.9H264c1,0,1.9,0.8,1.9,1.9v15.9
				C265.9,473.1,265,474,264,474z M213,470.2h49.1v-12.2H213V470.2z"/>
		</g>
		<g>
			<rect x="122.5" y="422.4" fill="#5AB0C4" width="117.9" height="15.9"/>
			<path d="M240.5,440.2H122.5c-1,0-1.9-0.8-1.9-1.9v-15.9c0-1,0.8-1.9,1.9-1.9h117.9c1,0,1.9,0.8,1.9,1.9v15.9
				C242.3,439.4,241.5,440.2,240.5,440.2z M124.4,436.5h114.2v-12.2H124.4V436.5z"/>
		</g>
		<g>
			<rect x="194.9" y="390.6" fill="#5AB0C4" width="69.1" height="15.9"/>
			<path d="M264,408.4h-69.1c-1,0-1.9-0.8-1.9-1.9v-15.9c0-1,0.8-1.9,1.9-1.9H264c1,0,1.9,0.8,1.9,1.9v15.9
				C265.9,407.6,265,408.4,264,408.4z M196.8,404.6h65.3v-12.2h-65.3V404.6z"/>
		</g>
	</g>
	<g>
		<path d="M297.6,315.7H71.1c-1,0-1.9-0.8-1.9-1.9s0.8-1.9,1.9-1.9h226.5c1,0,1.9,0.8,1.9,1.9S298.7,315.7,297.6,315.7z"/>
	</g>
	<g>
		<path d="M305.1,329.5h-234c-1,0-1.9-0.8-1.9-1.9c0-1,0.8-1.9,1.9-1.9h234c1,0,1.9,0.8,1.9,1.9C307,328.7,306.2,329.5,305.1,329.5z
			"/>
	</g>
	<g>
		<path d="M297.6,343.1H72.3c-1,0-1.9-0.8-1.9-1.9c0-1,0.8-1.9,1.9-1.9h225.3c1,0,1.9,0.8,1.9,1.9
			C299.5,342.2,298.7,343.1,297.6,343.1z"/>
	</g>
	<g>
		<path d="M292.3,239.8H93.8c-1,0-1.9-0.8-1.9-1.9V81.3c0-1,0.8-1.9,1.9-1.9h198.4c1,0,1.9,0.8,1.9,1.9v77.6l45.6,49.6
			c0.5,0.6,0.6,1.3,0.3,2c-0.3,0.7-1,1.1-1.7,1.1h-44.3v26.3C294.2,238.9,293.3,239.8,292.3,239.8z M95.7,236h194.7v-26.3
			c0-1,0.8-1.9,1.9-1.9h41.9l-43.2-47c-0.3-0.3-0.5-0.8-0.5-1.3V83.1H95.7V236z"/>
	</g>
	<g>
		<path fill="#808285" d="M1247.1,303.8v86.3h-81v-86.3c-25.4,13.8-42.6,40.1-42.6,70.3c0,34.2,22.1,63.5,53.2,75.1v218.2
			c0,16,13.4,29,29.9,29c16.5,0,29.9-13,29.9-29V449.2c31.1-11.6,53.2-40.9,53.2-75.1C1289.6,343.9,1272.5,317.6,1247.1,303.8z
			 M1206.6,678.5c-8.3,0-15.1-6.5-15.1-14.6c0-8.1,6.7-14.6,15.1-14.6c8.3,0,15.1,6.5,15.1,14.6
			C1221.6,671.9,1214.9,678.5,1206.6,678.5z"/>
		<path d="M1206.6,698.2c-17.5,0-31.8-13.8-31.8-30.8V450.5c-31.9-12.5-53.2-43-53.2-76.4c0-29.8,16.7-57.3,43.5-71.9
			c0.6-0.3,1.3-0.3,1.9,0c0.6,0.3,0.9,1,0.9,1.6v84.4h77.3v-84.4c0-0.7,0.3-1.3,0.9-1.6c0.6-0.3,1.3-0.4,1.9,0
			c26.9,14.6,43.5,42.1,43.5,71.9c0,33.4-21.3,63.9-53.2,76.4v216.9C1238.3,684.4,1224.1,698.2,1206.6,698.2z M1164.2,307.1
			c-24,14.3-38.8,39.7-38.8,67c0,32.3,20.9,61.7,52,73.4c0.7,0.3,1.2,1,1.2,1.8v218.2c0,14.9,12.6,27.1,28,27.1
			c15.4,0,28-12.1,28-27.1V449.2c0-0.8,0.5-1.5,1.2-1.8c31.1-11.6,52-41.1,52-73.3c0-27.4-14.8-52.8-38.8-67v83.1
			c0,1-0.8,1.9-1.9,1.9h-81c-1,0-1.9-0.8-1.9-1.9V307.1z M1206.6,680.3c-9.3,0-16.9-7.4-16.9-16.5c0-9.1,7.6-16.5,16.9-16.5h0
			c9.3,0,16.9,7.4,16.9,16.5C1223.5,673,1215.9,680.3,1206.6,680.3z M1206.6,651.2c-7.3,0-13.2,5.7-13.2,12.7
			c0,7,5.9,12.7,13.2,12.7c7.3,0,13.2-5.7,13.2-12.7C1219.8,656.9,1213.8,651.2,1206.6,651.2L1206.6,651.2z"/>
	</g>
	<g>
		<g>
			<polygon fill="#FFFFFF" points="243,631.5 93.1,631.5 93.1,907.1 292.4,907.1 292.4,680.8 			"/>
			<path d="M292.4,909H93.1c-1,0-1.9-0.8-1.9-1.9V631.5c0-1,0.8-1.9,1.9-1.9h150c0.5,0,1,0.2,1.3,0.6l49.3,49.3
				c0.4,0.4,0.6,0.8,0.6,1.3v226.3C294.2,908.1,293.4,909,292.4,909z M94.9,905.2h195.5V681.6l-48.2-48.2H94.9V905.2z"/>
		</g>
		<g>
			<polygon fill="#FFFFFF" points="243,680.8 292.4,680.8 243,631.5 			"/>
			<path d="M292.4,682.7H243c-1,0-1.9-0.8-1.9-1.9v-49.3c0-0.8,0.5-1.4,1.2-1.7c0.7-0.3,1.5-0.1,2,0.4l49.3,49.3
				c0.5,0.5,0.7,1.3,0.4,2C293.8,682.2,293.1,682.7,292.4,682.7z M244.9,678.9h42.9L244.9,636V678.9z"/>
		</g>
		<g>
			<rect x="120" y="665.5" fill="#E6E7E8" width="108.6" height="15.3"/>
			<path d="M228.6,682.7H120c-1,0-1.9-0.8-1.9-1.9v-15.3c0-1,0.8-1.9,1.9-1.9h108.6c1,0,1.9,0.8,1.9,1.9v15.3
				C230.5,681.8,229.6,682.7,228.6,682.7z M121.9,678.9h104.9v-11.5H121.9V678.9z"/>
		</g>
		<g>
			<line fill="#FFFFFF" x1="120" y1="711.3" x2="267.7" y2="711.3"/>
			<path d="M267.7,713.2H120c-1,0-1.9-0.8-1.9-1.9s0.8-1.9,1.9-1.9h147.7c1,0,1.9,0.8,1.9,1.9S268.7,713.2,267.7,713.2z"/>
		</g>
		<g>
			<line fill="#FFFFFF" x1="120" y1="746.3" x2="267.7" y2="746.3"/>
			<path d="M267.7,748.2H120c-1,0-1.9-0.8-1.9-1.9s0.8-1.9,1.9-1.9h147.7c1,0,1.9,0.8,1.9,1.9S268.7,748.2,267.7,748.2z"/>
		</g>
		<g>
			<line fill="#FFFFFF" x1="120" y1="781.3" x2="267.7" y2="781.3"/>
			<path d="M267.7,783.2H120c-1,0-1.9-0.8-1.9-1.9s0.8-1.9,1.9-1.9h147.7c1,0,1.9,0.8,1.9,1.9S268.7,783.2,267.7,783.2z"/>
		</g>
		<g>
			<line fill="#FFFFFF" x1="120" y1="816.3" x2="267.7" y2="816.3"/>
			<path d="M267.7,818.2H120c-1,0-1.9-0.8-1.9-1.9s0.8-1.9,1.9-1.9h147.7c1,0,1.9,0.8,1.9,1.9S268.7,818.2,267.7,818.2z"/>
		</g>
		<g>
			<path fill="#FFC2BE" d="M154.3,863.5c0,7.7-6.2,13.9-13.9,13.9c-7.7,0-13.9-6.2-13.9-13.9c0-7.7,6.2-13.9,13.9-13.9
				C148,849.6,154.3,855.8,154.3,863.5z"/>
			<path d="M140.4,879.3c-8.7,0-15.8-7.1-15.8-15.8c0-8.7,7.1-15.8,15.8-15.8s15.8,7.1,15.8,15.8
				C156.2,872.2,149.1,879.3,140.4,879.3z M140.4,851.4c-6.6,0-12,5.4-12,12c0,6.6,5.4,12,12,12c6.6,0,12-5.4,12-12
				C152.4,856.8,147,851.4,140.4,851.4z"/>
		</g>
		<g>
			<path fill="#FFC2BE" d="M206.6,863.5c0,7.7-6.2,13.9-13.9,13.9c-7.7,0-13.9-6.2-13.9-13.9c0-7.7,6.2-13.9,13.9-13.9
				C200.4,849.6,206.6,855.8,206.6,863.5z"/>
			<path d="M192.7,879.3c-8.7,0-15.8-7.1-15.8-15.8c0-8.7,7.1-15.8,15.8-15.8c8.7,0,15.8,7.1,15.8,15.8
				C208.5,872.2,201.4,879.3,192.7,879.3z M192.7,851.4c-6.6,0-12,5.4-12,12c0,6.6,5.4,12,12,12c6.6,0,12-5.4,12-12
				C204.7,856.8,199.3,851.4,192.7,851.4z"/>
		</g>
		<g>
			<path fill="#FFC2BE" d="M259,863.5c0,7.7-6.2,13.9-13.9,13.9s-13.9-6.2-13.9-13.9c0-7.7,6.2-13.9,13.9-13.9S259,855.8,259,863.5z
				"/>
			<path d="M245,879.3c-8.7,0-15.8-7.1-15.8-15.8c0-8.7,7.1-15.8,15.8-15.8c8.7,0,15.8,7.1,15.8,15.8
				C260.8,872.2,253.8,879.3,245,879.3z M245,851.4c-6.6,0-12,5.4-12,12c0,6.6,5.4,12,12,12c6.6,0,12-5.4,12-12
				C257.1,856.8,251.7,851.4,245,851.4z"/>
		</g>
	</g>
	<g>
		<g>
			<path fill="#FFFFFF" d="M983.5,851.3c0,24.9-20.2,45.1-45.1,45.1h-13.4c-24.9,0-45.1-20.2-45.1-45.1v-87.9
				c0-24.9,20.2-45.1,45.1-45.1h13.4c24.9,0,45.1,20.2,45.1,45.1V851.3z"/>
			<path d="M938.4,898.3h-13.4c-25.9,0-47-21.1-47-47v-87.9c0-25.9,21.1-47,47-47h13.4c25.9,0,47,21.1,47,47v87.9
				C985.3,877.3,964.3,898.3,938.4,898.3z M924.9,720.2c-23.8,0-43.2,19.4-43.2,43.2v87.9c0,23.8,19.4,43.2,43.2,43.2h13.4
				c23.8,0,43.2-19.4,43.2-43.2v-87.9c0-23.8-19.4-43.2-43.2-43.2H924.9z"/>
		</g>
		<g>
			<path fill="#FFC2BE" d="M938.4,793.4c0,3.8-3.1,6.9-6.9,6.9l0,0c-3.8,0-6.9-3.1-6.9-6.9v-40.1c0-3.8,3.1-6.9,6.9-6.9l0,0
				c3.8,0,6.9,3.1,6.9,6.9V793.4z"/>
			<path d="M931.5,802.1c-4.8,0-8.8-3.9-8.8-8.8v-40.1c0-4.8,3.9-8.8,8.8-8.8c4.8,0,8.8,3.9,8.8,8.8v40.1
				C940.3,798.2,936.3,802.1,931.5,802.1z M931.5,748.3c-2.8,0-5,2.3-5,5v40.1c0,2.8,2.3,5,5,5c2.8,0,5-2.3,5-5v-40.1
				C936.5,750.5,934.3,748.3,931.5,748.3z"/>
		</g>
	</g>
	<g>
		<path d="M969.4,775.2h-21.9c-1,0-1.9-0.8-1.9-1.9c0-1,0.8-1.9,1.9-1.9h21.9c1,0,1.9,0.8,1.9,1.9
			C971.3,774.4,970.4,775.2,969.4,775.2z"/>
	</g>
	<g>
		<path d="M915.5,775.2h-21.9c-1,0-1.9-0.8-1.9-1.9c0-1,0.8-1.9,1.9-1.9h21.9c1,0,1.9,0.8,1.9,1.9
			C917.4,774.4,916.6,775.2,915.5,775.2z"/>
	</g>
	<g>
		<g>
			<path d="M408.1,135.4l0.1-0.2l-3.4-1.8l-0.1,0.3c-1.1,4.7-3.4,8.5-6.8,11.5c-4.4,3.8-10.2,5.7-17.4,5.7c-8.8,0-15.5-3.7-20-10.9
				c-3.8-6-5.7-13.8-5.7-23.3c0-9.4,2-17.3,5.9-23.5c4.6-7.3,11.4-11,20.3-11c12,0,19.7,4.9,22.9,14.6l0.1,0.3l3.6-1.9l-0.1-0.2
				c-1.5-4.1-4-7.6-7.6-10.4c-5-4-11.1-6-18.3-6c-10.5,0-18.6,3.9-23.9,11.5c-4.6,6.8-7,15.7-7,26.5c0,10.8,2.3,19.6,6.8,26.1
				c5.2,7.6,13.1,11.4,23.5,11.4c8,0,14.6-2.2,19.6-6.6C404.3,144.5,406.8,140.3,408.1,135.4z"/>
		</g>
		<g>
			<path d="M475.9,143.3c5-6.6,7.6-15.6,7.6-26.6c0-11-2.5-19.9-7.6-26.7c-5.6-7.5-13.9-11.2-24.6-11.2c-10.7,0-18.9,3.8-24.6,11.3
				c-5,6.8-7.6,15.7-7.6,26.6c0,11,2.5,20,7.6,26.6c5.6,7.4,13.8,11.1,24.6,11.1C461.9,154.4,470.2,150.7,475.9,143.3z M451.2,151
				c-9.5,0-16.8-3.5-21.6-10.3c-4.3-6.1-6.5-14.1-6.5-24c0-9.8,2.2-17.9,6.5-24c4.9-6.9,12.2-10.4,21.6-10.4
				c9.4,0,16.7,3.5,21.6,10.4c4.4,6.1,6.6,14.1,6.6,24c0,9.9-2.2,18-6.5,24C468.1,147.5,460.8,151,451.2,151z"/>
		</g>
		<g>
			<polygon points="554.3,85.9 554.3,152.9 557.9,152.9 557.9,80.4 552.7,80.4 527.6,130.8 501.6,80.5 501.6,80.4 496.3,80.4 
				496.3,152.9 499.9,152.9 499.9,85.9 526.3,135.6 526.4,135.7 528.7,135.7 			"/>
		</g>
		<g>
			<path d="M614.4,114.1c3.6-3.7,5.5-8.6,5.5-14.4c0-12.8-8.8-19.3-26.2-19.3h-19.9v72.6h3.9v-33.3h15.7c5.1,0,8.8-0.2,11.2-0.7
				C608.7,118.2,612,116.5,614.4,114.1z M577.7,83.9h13.6c5.2,0,9.1,0.2,11.5,0.6c8.7,1.4,13.1,6.4,13.1,14.9
				c0,7.5-2.7,12.5-8.1,14.9c-2.8,1.2-8.4,1.9-16.6,1.9h-13.5V83.9z"/>
		</g>
		<g>
			<path d="M683.3,127.5V80.4h-3.8v45.5c0,7.8-1.8,13.9-5.2,18.2c-3.8,4.6-9.6,6.9-17.1,6.9c-14.8,0-22.4-8.4-22.4-25.1V80.4h-3.8
				v47.1c0,8.5,2.3,15.2,6.8,19.7c4.6,4.8,11.1,7.2,19.4,7.2c8.3,0,14.8-2.4,19.4-7.2C681,142.6,683.3,135.9,683.3,127.5z"/>
		</g>
		<g>
			<polygon points="714.4,152.9 718.4,152.9 718.4,84 740.8,84 740.8,80.4 692,80.4 692,84 714.4,84 			"/>
		</g>
		<g>
			<polygon points="753.5,117 785.7,117 785.7,113.3 753.5,113.3 753.5,84.1 794.1,84.1 794.1,80.4 749.6,80.4 749.6,152.9 
				795.1,152.9 795.1,149.2 753.5,149.2 			"/>
		</g>
		<g>
			<path d="M852.6,129.6c-0.6-6.8-3.8-11-9.4-12.4c8.2-2.8,12.3-8.8,12.3-17.7c0-7.4-2.4-12.7-7.2-15.7c-3.8-2.3-9.7-3.4-17.7-3.4
				h-24.2v72.6h3.9v-34.1h21.5c4.9,0,8.6,0.6,10.9,1.8c2.9,1.5,4.8,4.4,5.5,8.7c0.1,0.5,0.1,1.3,0.1,2.5c0,1.3,0,2.8,0,4.7v16.4h4.4
				l-0.1-14C852.7,131,852.6,129.8,852.6,129.6z M810.3,84h20.3c2.1,0,3.9,0.1,5.4,0.1c1.5,0.1,2.8,0.2,3.7,0.3
				c7.9,1.4,11.9,6.6,11.9,15.3c0,10.5-6.3,15.6-19.3,15.6h-22V84z"/>
		</g>
		<g>
			<path d="M438.7,217.4c-2.9-1.8-8.2-3.8-15.9-5.8c-0.3-0.1-0.6-0.2-0.9-0.3c-0.2,0-0.4-0.1-0.5-0.1c-7.2-1.8-12-3.8-14.1-5.7
				c-2.9-2.7-4.3-5.9-4.3-9.5c0-5.1,1.8-9.1,5.2-11.8c3.2-2.6,7.5-3.9,12.8-3.9c5.6,0,10.3,1.6,14,4.6c3.7,3.2,5.7,7.7,5.8,13.4
				l0,0.3h3.7l0-0.3c-0.3-6.8-2.7-12.1-6.9-15.8c-4.1-3.7-9.6-5.6-16.4-5.6c-6.2,0-11.4,1.6-15.4,4.8c-4.3,3.3-6.5,8.1-6.5,14.3
				c0,4.9,1.7,9,5.2,12.1c2.2,2,7.6,4.2,15.8,6.6c1,0.2,1.2,0.3,1.2,0.3l0.1,0l0.1,0c7.3,2,12.2,3.7,14.4,5.2
				c4.4,2.7,6.6,6.9,6.6,12.3c0,5.2-2.1,9.4-6.3,12.4c-3.7,2.8-8.3,4.2-13.9,4.2c-6.3,0-11.4-1.8-15-5.5c-3.6-3.6-5.7-8.6-6.1-14.8
				l0-0.2h-3.8l0,0.3c0.5,7.4,2.9,13.2,7.3,17.3c4.3,4.2,10.2,6.4,17.5,6.4c6.9,0,12.6-1.7,17-5.1c4.8-3.8,7.2-9.1,7.2-15.8
				C446.4,225.4,443.8,220.7,438.7,217.4z"/>
		</g>
		<g>
			<path d="M509.3,231.8c-1.1,4.7-3.4,8.5-6.8,11.5c-4.4,3.8-10.2,5.7-17.4,5.7c-8.8,0-15.5-3.7-20-10.9c-3.8-6-5.7-13.8-5.7-23.3
				c0-9.4,2-17.3,5.9-23.5c4.6-7.3,11.4-11,20.3-11c12,0,19.7,4.9,22.9,14.6l0.1,0.3l3.6-1.9l-0.1-0.2c-1.5-4.1-4-7.6-7.6-10.4
				c-5-4-11.1-6-18.3-6c-10.5,0-18.6,3.9-23.9,11.5c-4.6,6.8-7,15.7-7,26.5c0,10.8,2.3,19.6,6.8,26.1c5.2,7.6,13.1,11.4,23.5,11.4
				c8,0,14.6-2.2,19.6-6.6c3.7-3.3,6.2-7.4,7.5-12.4l0.1-0.2l-3.4-1.8L509.3,231.8z"/>
		</g>
		<g>
			<rect x="527.2" y="178.4" width="3.8" height="72.6"/>
		</g>
		<g>
			<polygon points="551.4,214.9 583.5,214.9 583.5,211.3 551.4,211.3 551.4,182.1 592,182.1 592,178.4 547.5,178.4 547.5,250.9 
				593,250.9 593,247.2 551.4,247.2 			"/>
		</g>
		<g>
			<polygon points="652.8,244.1 608.1,178.5 608.1,178.4 604.3,178.4 604.3,250.9 608.1,250.9 608.1,185.3 652.9,250.8 653,250.9 
				656.7,250.9 656.7,178.4 652.8,178.4 			"/>
		</g>
		<g>
			<path d="M723.4,231.8c-1.1,4.7-3.4,8.5-6.8,11.5c-4.4,3.8-10.2,5.7-17.4,5.7c-8.8,0-15.5-3.7-20-10.9c-3.8-6-5.7-13.8-5.7-23.3
				c0-9.4,2-17.3,5.9-23.5c4.6-7.3,11.4-11,20.3-11c12,0,19.7,4.9,22.9,14.6l0.1,0.3l3.6-1.9l-0.1-0.2c-1.5-4.1-4-7.6-7.6-10.4
				c-5-4-11.1-6-18.3-6c-10.5,0-18.6,3.9-23.9,11.5c-4.6,6.8-7,15.7-7,26.5c0,10.8,2.3,19.6,6.8,26.1c5.2,7.6,13.1,11.4,23.5,11.4
				c8,0,14.6-2.2,19.6-6.6c3.7-3.3,6.2-7.4,7.5-12.4l0.1-0.2l-3.4-1.8L723.4,231.8z"/>
		</g>
		<g>
			<polygon points="744.7,214.9 776.9,214.9 776.9,211.3 744.7,211.3 744.7,182.1 785.3,182.1 785.3,178.4 740.8,178.4 740.8,250.9 
				786.3,250.9 786.3,247.2 744.7,247.2 			"/>
		</g>
	</g>
	<g>
		<rect x="1040.2" y="618.4" fill="#FFFFFF" width="281.2" height="288.7"/>
		<path d="M1321.4,909h-281.2c-1,0-1.9-0.8-1.9-1.9V618.4c0-1,0.8-1.9,1.9-1.9h281.2c1,0,1.9,0.8,1.9,1.9v288.7
			C1323.2,908.1,1322.4,909,1321.4,909z M1042.1,905.2h277.4V620.3h-277.4V905.2z"/>
	</g>
	<g>
		<g>
			<path fill="#FFFFFF" d="M521,862.4c0,8.3-6.8,15-15,15H361c-8.3,0-15-6.8-15-15V799c0-8.3,6.8-15,15-15h145c8.3,0,15,6.8,15,15
				V862.4z"/>
		</g>
		<g>
			<path fill="#64C3D9" d="M521,862.4c0,8.3-6.8,15-15,15H361c-8.3,0-15-6.8-15-15V799c0-8.3,6.8-15,15-15h145c8.3,0,15,6.8,15,15
				V862.4z"/>
			<path d="M505.9,879.3H361c-9.3,0-16.9-7.6-16.9-16.9V799c0-9.3,7.6-16.9,16.9-16.9h145c9.3,0,16.9,7.6,16.9,16.9v63.4
				C522.8,871.7,515.3,879.3,505.9,879.3z M361,785.8c-7.3,0-13.2,5.9-13.2,13.2v63.4c0,7.3,5.9,13.2,13.2,13.2h145
				c7.3,0,13.2-5.9,13.2-13.2V799c0-7.3-5.9-13.2-13.2-13.2H361z"/>
		</g>
	</g>
	<g>
		<rect x="521" y="796.1" fill="#FFFFFF" width="74" height="69.1"/>
		<path d="M595,867.1h-74c-1,0-1.9-0.8-1.9-1.9v-69.1c0-1,0.8-1.9,1.9-1.9h74c1,0,1.9,0.8,1.9,1.9v69.1
			C596.8,866.3,596,867.1,595,867.1z M522.8,863.3h70.2V798h-70.2V863.3z"/>
	</g>
	<g>
		<rect x="534.9" y="809.9" fill="#FFFFFF" width="43.5" height="12.2"/>
		<path d="M578.4,824h-43.5c-1,0-1.9-0.8-1.9-1.9v-12.2c0-1,0.8-1.9,1.9-1.9h43.5c1,0,1.9,0.8,1.9,1.9v12.2
			C580.2,823.1,579.4,824,578.4,824z M536.8,820.2h39.7v-8.5h-39.7V820.2z"/>
	</g>
	<g>
		<rect x="534.9" y="839.3" fill="#FFFFFF" width="43.5" height="12.2"/>
		<path d="M578.4,853.4h-43.5c-1,0-1.9-0.8-1.9-1.9v-12.2c0-1,0.8-1.9,1.9-1.9h43.5c1,0,1.9,0.8,1.9,1.9v12.2
			C580.2,852.5,579.4,853.4,578.4,853.4z M536.8,849.6h39.7v-8.5h-39.7V849.6z"/>
	</g>
	<g>
		<path d="M494,858.7H371.9c-1,0-1.9-0.8-1.9-1.9s0.8-1.9,1.9-1.9H494c1,0,1.9,0.8,1.9,1.9S495.1,858.7,494,858.7z"/>
	</g>
	<g>
		<path fill="#F1F2F2" d="M1156.5,830.6c-1,0-1.9-0.2-2.8-0.5v42h54.5v-42.1c-1,0.4-2.1,0.7-3.2,0.7H1156.5z"/>
		<path d="M1208.2,873.9h-54.5c-1,0-1.9-0.8-1.9-1.9v-42c0-0.6,0.3-1.2,0.8-1.5c0.5-0.4,1.1-0.5,1.7-0.2c0.9,0.3,1.5,0.4,2.2,0.4
			h48.5c0.8,0,1.6-0.2,2.5-0.5c0.6-0.2,1.2-0.2,1.8,0.2c0.5,0.3,0.8,0.9,0.8,1.6V872C1210.1,873.1,1209.3,873.9,1208.2,873.9z
			 M1155.6,870.2h50.7v-37.8c-0.4,0.1-0.9,0.1-1.3,0.1h-48.5c-0.3,0-0.6,0-0.9,0V870.2z"/>
	</g>
	<g>
		<path fill="#FFF9A6" d="M1180.8,659.9c-38.9,0-70.4,31.5-70.4,70.4c0,26.6,14.8,49.8,36.6,61.7V821c0,4.3,2.9,7.9,6.8,9.1
			c0.9,0.3,1.8,0.5,2.8,0.5h48.5c1.1,0,2.2-0.2,3.2-0.6c3.7-1.3,6.4-4.8,6.4-8.9V792c21.8-12,36.6-35.1,36.6-61.7
			C1251.1,691.4,1219.6,659.9,1180.8,659.9z"/>
		<path d="M1205,832.4h-48.5c-1.1,0-2.2-0.2-3.4-0.6c-4.8-1.5-8.1-5.9-8.1-10.9v-27.8c-22.6-12.8-36.6-36.8-36.6-62.8
			c0-39.8,32.4-72.3,72.3-72.3c39.8,0,72.3,32.4,72.3,72.3c0,26-14,50-36.6,62.8V821c0,4.8-3.1,9.1-7.6,10.7
			C1207.6,832.1,1206.3,832.4,1205,832.4z M1180.8,661.8c-37.8,0-68.5,30.7-68.5,68.5c0,25,13.6,48,35.6,60.1c0.6,0.3,1,1,1,1.6V821
			c0,3.3,2.2,6.3,5.4,7.3c0.8,0.3,1.5,0.4,2.2,0.4h48.5c0.8,0,1.7-0.2,2.6-0.5c3.1-1.1,5.1-4,5.1-7.2V792c0-0.7,0.4-1.3,1-1.6
			c22-12,35.6-35.1,35.6-60.1C1249.3,692.5,1218.5,661.8,1180.8,661.8z"/>
	</g>
	<g>
		<line fill="#FFE482" x1="1165.7" y1="882.6" x2="1196.3" y2="882.6"/>
		<path d="M1196.3,884.5h-30.6c-1,0-1.9-0.8-1.9-1.9s0.8-1.9,1.9-1.9h30.6c1,0,1.9,0.8,1.9,1.9S1197.3,884.5,1196.3,884.5z"/>
	</g>
	<g>
		<polygon fill="#808285" points="1156.9,830.5 1180.8,788.4 1204.6,830.5 		"/>
		<path d="M1204.7,832.4C1204.7,832.4,1204.7,832.4,1204.7,832.4h-47.8c-0.7,0-1.3-0.4-1.6-0.9c-0.3-0.6-0.3-1.3,0-1.9l23.8-42.1
			c0.7-1.2,2.6-1.2,3.3,0l23.6,41.7c0.3,0.3,0.5,0.8,0.5,1.3C1206.6,831.5,1205.7,832.4,1204.7,832.4z M1160.2,828.6h41.2
			l-20.6-36.4L1160.2,828.6z"/>
	</g>
	<g>
		<line fill="#FFE482" x1="1142.9" y1="844.7" x2="1218.6" y2="839"/>
		<path d="M1142.9,846.5c-1,0-1.8-0.8-1.9-1.7c-0.1-1,0.7-1.9,1.7-2l75.7-5.6c1-0.1,1.9,0.7,2,1.7c0.1,1-0.7,1.9-1.7,2l-75.7,5.6
			C1143,846.5,1143,846.5,1142.9,846.5z"/>
	</g>
	<g>
		<line fill="#FFE482" x1="1142.9" y1="860.1" x2="1218.6" y2="854.5"/>
		<path d="M1142.9,862c-1,0-1.8-0.8-1.9-1.7c-0.1-1,0.7-1.9,1.7-2l75.7-5.6c1-0.1,1.9,0.7,2,1.7c0.1,1-0.7,1.9-1.7,2l-75.7,5.6
			C1143,862,1143,862,1142.9,862z"/>
	</g>
	<g>
		<path d="M1204.6,698.2h-47.7c-1,0-1.9-0.8-1.9-1.9s0.8-1.9,1.9-1.9h47.7c1,0,1.9,0.8,1.9,1.9S1205.7,698.2,1204.6,698.2z"/>
	</g>
	<g>
		<path d="M1224.2,723.1h-86.9c-1,0-1.9-0.8-1.9-1.9s0.8-1.9,1.9-1.9h86.9c1,0,1.9,0.8,1.9,1.9S1225.3,723.1,1224.2,723.1z"/>
	</g>
	<g>
		<path d="M1180.8,790.2c-1,0-1.9-0.8-1.9-1.9v-40.5c0-1,0.8-1.9,1.9-1.9c1,0,1.9,0.8,1.9,1.9v40.5
			C1182.7,789.4,1181.8,790.2,1180.8,790.2z"/>
	</g>
	<g>
		<path d="M1206.6,749.7H1155c-1,0-1.9-0.8-1.9-1.9s0.8-1.9,1.9-1.9h51.6c1,0,1.9,0.8,1.9,1.9S1207.6,749.7,1206.6,749.7z"/>
	</g>
	<g>
		<g>
			<path fill="#B0F2FF" d="M799.4,858.5c0,13-10.6,23.6-23.6,23.6h-62.9c-13,0-23.6-10.6-23.6-23.6v-62.9c0-13,10.6-23.6,23.6-23.6
				h62.9c13,0,23.6,10.6,23.6,23.6V858.5z"/>
			<path d="M775.8,884h-62.9c-14.1,0-25.5-11.4-25.5-25.5v-62.9c0-14,11.4-25.5,25.5-25.5h62.9c14,0,25.5,11.4,25.5,25.5v62.9
				C801.3,872.6,789.9,884,775.8,884z M712.9,773.9c-12,0-21.7,9.7-21.7,21.7v62.9c0,12,9.7,21.7,21.7,21.7h62.9
				c12,0,21.7-9.7,21.7-21.7v-62.9c0-12-9.7-21.7-21.7-21.7H712.9z"/>
		</g>
		<g>
			<path d="M714.4,764.5c-1,0-1.9-0.8-1.9-1.9v-17.7c0-1,0.8-1.9,1.9-1.9s1.9,0.8,1.9,1.9v17.7C716.2,763.7,715.4,764.5,714.4,764.5
				z"/>
		</g>
		<g>
			<path d="M734.4,764.5c-1,0-1.9-0.8-1.9-1.9v-17.7c0-1,0.8-1.9,1.9-1.9s1.9,0.8,1.9,1.9v17.7C736.2,763.7,735.4,764.5,734.4,764.5
				z"/>
		</g>
		<g>
			<path d="M754.4,764.5c-1,0-1.9-0.8-1.9-1.9v-17.7c0-1,0.8-1.9,1.9-1.9c1,0,1.9,0.8,1.9,1.9v17.7
				C756.2,763.7,755.4,764.5,754.4,764.5z"/>
		</g>
		<g>
			<path d="M774.4,764.5c-1,0-1.9-0.8-1.9-1.9v-17.7c0-1,0.8-1.9,1.9-1.9c1,0,1.9,0.8,1.9,1.9v17.7
				C776.2,763.7,775.4,764.5,774.4,764.5z"/>
		</g>
		<g>
			<path d="M714.4,911c-1,0-1.9-0.8-1.9-1.9v-17.7c0-1,0.8-1.9,1.9-1.9s1.9,0.8,1.9,1.9v17.7C716.2,910.2,715.4,911,714.4,911z"/>
		</g>
		<g>
			<path d="M734.4,911c-1,0-1.9-0.8-1.9-1.9v-17.7c0-1,0.8-1.9,1.9-1.9s1.9,0.8,1.9,1.9v17.7C736.2,910.2,735.4,911,734.4,911z"/>
		</g>
		<g>
			<path d="M754.4,911c-1,0-1.9-0.8-1.9-1.9v-17.7c0-1,0.8-1.9,1.9-1.9c1,0,1.9,0.8,1.9,1.9v17.7C756.2,910.2,755.4,911,754.4,911z"
				/>
		</g>
		<g>
			<path d="M774.4,911c-1,0-1.9-0.8-1.9-1.9v-17.7c0-1,0.8-1.9,1.9-1.9c1,0,1.9,0.8,1.9,1.9v17.7C776.2,910.2,775.4,911,774.4,911z"
				/>
		</g>
		<g>
			<path d="M826.5,798.9h-17.7c-1,0-1.9-0.8-1.9-1.9c0-1,0.8-1.9,1.9-1.9h17.7c1,0,1.9,0.8,1.9,1.9
				C828.4,798.1,827.5,798.9,826.5,798.9z"/>
		</g>
		<g>
			<path d="M826.5,818.9h-17.7c-1,0-1.9-0.8-1.9-1.9s0.8-1.9,1.9-1.9h17.7c1,0,1.9,0.8,1.9,1.9S827.5,818.9,826.5,818.9z"/>
		</g>
		<g>
			<path d="M826.5,838.9h-17.7c-1,0-1.9-0.8-1.9-1.9c0-1,0.8-1.9,1.9-1.9h17.7c1,0,1.9,0.8,1.9,1.9
				C828.4,838.1,827.5,838.9,826.5,838.9z"/>
		</g>
		<g>
			<path d="M826.5,858.9h-17.7c-1,0-1.9-0.8-1.9-1.9c0-1,0.8-1.9,1.9-1.9h17.7c1,0,1.9,0.8,1.9,1.9
				C828.4,858.1,827.5,858.9,826.5,858.9z"/>
		</g>
		<g>
			<path d="M679.9,798.9h-17.7c-1,0-1.9-0.8-1.9-1.9c0-1,0.8-1.9,1.9-1.9h17.7c1,0,1.9,0.8,1.9,1.9
				C681.8,798.1,681,798.9,679.9,798.9z"/>
		</g>
		<g>
			<path d="M679.9,818.9h-17.7c-1,0-1.9-0.8-1.9-1.9s0.8-1.9,1.9-1.9h17.7c1,0,1.9,0.8,1.9,1.9S681,818.9,679.9,818.9z"/>
		</g>
		<g>
			<path d="M679.9,838.9h-17.7c-1,0-1.9-0.8-1.9-1.9c0-1,0.8-1.9,1.9-1.9h17.7c1,0,1.9,0.8,1.9,1.9
				C681.8,838.1,681,838.9,679.9,838.9z"/>
		</g>
		<g>
			<path d="M679.9,858.9h-17.7c-1,0-1.9-0.8-1.9-1.9c0-1,0.8-1.9,1.9-1.9h17.7c1,0,1.9,0.8,1.9,1.9
				C681.8,858.1,681,858.9,679.9,858.9z"/>
		</g>
		<g>
			<path d="M783.7,828.9c-1,0-1.9-0.8-1.9-1.9c0-20.7-16.8-37.5-37.5-37.5c-1,0-1.9-0.8-1.9-1.9s0.8-1.9,1.9-1.9
				c22.7,0,41.2,18.5,41.2,41.2C785.6,828.1,784.7,828.9,783.7,828.9z"/>
		</g>
		<g>
			<path d="M744.4,868.3c-22.7,0-41.2-18.5-41.2-41.2c0-1,0.8-1.9,1.9-1.9c1,0,1.9,0.8,1.9,1.9c0,20.7,16.8,37.5,37.5,37.5
				c1,0,1.9,0.8,1.9,1.9C746.2,867.4,745.4,868.3,744.4,868.3z"/>
		</g>
		<g>
			<path d="M766.7,828.9c-1,0-1.9-0.8-1.9-1.9c0-11.3-9.2-20.4-20.4-20.4c-1,0-1.9-0.8-1.9-1.9s0.8-1.9,1.9-1.9
				c13.3,0,24.2,10.8,24.2,24.2C768.5,828.1,767.7,828.9,766.7,828.9z"/>
		</g>
		<g>
			<path d="M744.4,851.2c-13.3,0-24.2-10.8-24.2-24.2c0-1,0.8-1.9,1.9-1.9s1.9,0.8,1.9,1.9c0,11.3,9.2,20.4,20.4,20.4
				c1,0,1.9,0.8,1.9,1.9S745.4,851.2,744.4,851.2z"/>
		</g>
	</g>
	<g>
		<path d="M1064.8,160.5h-92.4c-1,0-1.9-0.8-1.9-1.9c0-1,0.8-1.9,1.9-1.9h92.4c1,0,1.9,0.8,1.9,1.9
			C1066.6,159.7,1065.8,160.5,1064.8,160.5z"/>
	</g>
	<g>
		<path d="M1168.8,191.2H972.4c-1,0-1.9-0.8-1.9-1.9s0.8-1.9,1.9-1.9h196.4c1,0,1.9,0.8,1.9,1.9S1169.8,191.2,1168.8,191.2z"/>
	</g>
	<g>
		<path fill="#64C3D9" d="M994.7,256.6c0,13-10.5,23.5-23.5,23.5c-13,0-23.5-10.5-23.5-23.5c0-13,10.5-23.5,23.5-23.5
			C984.2,233.1,994.7,243.6,994.7,256.6z"/>
		<path d="M971.2,281.9c-14,0-25.4-11.4-25.4-25.4s11.4-25.4,25.4-25.4c14,0,25.4,11.4,25.4,25.4S985.2,281.9,971.2,281.9z
			 M971.2,234.9c-11.9,0-21.6,9.7-21.6,21.6c0,11.9,9.7,21.6,21.6,21.6c11.9,0,21.6-9.7,21.6-21.6
			C992.8,244.6,983.1,234.9,971.2,234.9z"/>
	</g>
	<g>
		<circle fill="#64C3D9" cx="1054" cy="256.6" r="23.5"/>
		<path d="M1054,281.9c-14,0-25.4-11.4-25.4-25.4s11.4-25.4,25.4-25.4c14,0,25.4,11.4,25.4,25.4S1067.9,281.9,1054,281.9z
			 M1054,234.9c-11.9,0-21.6,9.7-21.6,21.6c0,11.9,9.7,21.6,21.6,21.6s21.6-9.7,21.6-21.6C1075.6,244.6,1065.9,234.9,1054,234.9z"/>
	</g>
	<g>
		<path fill="#64C3D9" d="M1160.2,256.6c0,13-10.5,23.5-23.5,23.5c-13,0-23.5-10.5-23.5-23.5c0-13,10.5-23.5,23.5-23.5
			C1149.7,233.1,1160.2,243.6,1160.2,256.6z"/>
		<path d="M1136.7,281.9c-14,0-25.4-11.4-25.4-25.4s11.4-25.4,25.4-25.4s25.4,11.4,25.4,25.4S1150.7,281.9,1136.7,281.9z
			 M1136.7,234.9c-11.9,0-21.6,9.7-21.6,21.6c0,11.9,9.7,21.6,21.6,21.6s21.6-9.7,21.6-21.6C1158.3,244.6,1148.6,234.9,1136.7,234.9
			z"/>
	</g>
	<g>
		<g>
			<path fill="#F1F2F2" d="M159.2,159.6c0-7.6,0.8-14.8,2.2-21.5h-24.5c-2.5,6.7-3.8,13.9-3.8,21.5c0,7.6,1.4,14.8,3.8,21.5h24.5
				C160,174.4,159.2,167.1,159.2,159.6z"/>
			<path d="M161.4,182.9h-24.5c-0.8,0-1.5-0.5-1.8-1.2c-2.6-7.1-4-14.5-4-22.1c0-7.6,1.3-15.1,4-22.1c0.3-0.7,1-1.2,1.8-1.2h24.5
				c0.6,0,1.1,0.3,1.5,0.7c0.4,0.4,0.5,1,0.4,1.6c-1.4,6.8-2.2,13.9-2.2,21.1c0,7.2,0.7,14.3,2.2,21.1c0.1,0.6,0,1.1-0.4,1.6
				C162.6,182.7,162,182.9,161.4,182.9z M138.2,179.2h20.9c-1.2-6.3-1.8-12.9-1.8-19.6c0-6.7,0.6-13.3,1.8-19.6h-20.9
				c-2.2,6.3-3.3,12.9-3.3,19.6C135,166.3,136.1,172.9,138.2,179.2z"/>
		</g>
		<g>
			<path fill="#F1F2F2" d="M170.1,115.2c6.4-10.7,15.1-17.4,24.7-17.4c0,0,0.1-0.1,0.1-0.1l0,0c-0.1,0-0.1,0.1-0.2,0.1
				c-16.7,0-31.7,6.7-42.8,17.4c-6.6,6.4-11.7,14.2-15,22.9h24.5C163.3,129.4,166.3,121.6,170.1,115.2z"/>
			<path d="M161.4,140h-24.5c-0.6,0-1.2-0.3-1.5-0.8c-0.4-0.5-0.4-1.2-0.2-1.7c3.3-8.8,8.6-17,15.4-23.6
				c11.8-11.5,27.4-17.9,43.9-18c0.6-0.1,1.2,0.1,1.7,0.5c0.6,0.7,0.8,1.6,0.3,2.4c-0.1,0.1-0.2,0.3-0.3,0.3
				c-0.4,0.4-0.8,0.5-1.3,0.6c-8.6,0-16.8,5.9-23.1,16.5c-3.7,6.2-6.6,13.9-8.4,22.3C163.1,139.4,162.3,140,161.4,140z M139.7,136.2
				h20.3c1.9-8.2,4.8-15.8,8.5-22c3.1-5.2,6.7-9.4,10.6-12.5c-9.6,2.6-18.5,7.7-25.8,14.8C147.4,122.1,142.8,128.9,139.7,136.2z"/>
		</g>
		<g>
			<path fill="#F1F2F2" d="M219.7,115.2c3.8,6.4,6.8,14.2,8.6,22.9h24.5c-3.2-8.7-8.4-16.5-15-22.9c-11.1-10.7-26.2-17.4-42.8-17.4
				c-0.1,0-0.1-0.1-0.2-0.1c0,0,0.1,0.1,0.1,0.1C204.6,97.8,213.3,104.5,219.7,115.2z"/>
			<path d="M252.8,140h-24.5c-0.9,0-1.7-0.6-1.8-1.5c-1.8-8.4-4.7-16.1-8.4-22.3c-6.3-10.6-14.5-16.5-23.1-16.5
				c-0.5,0-1-0.2-1.4-0.6c-0.1-0.1-0.2-0.3-0.3-0.3c-0.5-0.8-0.4-1.8,0.3-2.4c0.5-0.5,1.3-0.7,2-0.4c16.4,0.2,31.8,6.5,43.6,18
				c6.8,6.6,12.1,14.8,15.4,23.6c0.2,0.6,0.1,1.2-0.2,1.7C254,139.7,253.5,140,252.8,140z M229.8,136.2h20.3
				c-3.1-7.3-7.7-14.1-13.5-19.7c-7.3-7.1-16.2-12.1-25.8-14.8c3.9,3,7.4,7.2,10.6,12.5C225,120.4,227.9,128,229.8,136.2z"/>
		</g>
		<g>
			<path fill="#F1F2F2" d="M170.1,203.9c-3.8-6.4-6.8-14.2-8.6-22.9h-24.5c3.2,8.7,8.4,16.5,15,22.9c11.1,10.8,26.2,17.4,42.8,17.4
				c0.1,0,0.1,0.1,0.2,0.1l0,0c0,0-0.1-0.1-0.1-0.1C185.2,221.3,176.5,214.7,170.1,203.9z"/>
			<path d="M194.7,223.3c-0.2,0-0.3,0-0.5-0.1c-16.4-0.2-31.9-6.5-43.7-18c-6.8-6.6-12.1-14.7-15.4-23.6c-0.2-0.6-0.1-1.2,0.2-1.7
				c0.3-0.5,0.9-0.8,1.5-0.8h24.5c0.9,0,1.7,0.6,1.8,1.5c1.8,8.4,4.7,16.1,8.4,22.3c6.3,10.6,14.5,16.5,23.1,16.5
				c0.5,0,1,0.2,1.3,0.6c0.6,0.7,0.7,1.9,0.1,2.5C195.8,223.1,195.3,223.3,194.7,223.3z M139.7,182.9c3.1,7.3,7.8,14.1,13.5,19.7
				c7.3,7.1,16.2,12.2,25.8,14.8c-3.9-3.1-7.4-7.2-10.6-12.5c-3.7-6.2-6.6-13.8-8.5-22H139.7z"/>
		</g>
		<g>
			<path fill="#F1F2F2" d="M252.8,138.1h-24.5c1.4,6.7,2.2,13.9,2.2,21.5c0,7.6-0.8,14.8-2.2,21.5h24.5c2.5-6.7,3.8-13.9,3.8-21.5
				C256.7,152,255.3,144.8,252.8,138.1z"/>
			<path d="M252.8,182.9h-24.5c-0.6,0-1.1-0.3-1.5-0.7c-0.4-0.4-0.5-1-0.4-1.6c1.4-6.7,2.2-13.8,2.2-21.1c0-7.2-0.7-14.3-2.2-21.1
				c-0.1-0.6,0-1.1,0.4-1.6c0.4-0.4,0.9-0.7,1.5-0.7h24.5c0.8,0,1.5,0.5,1.8,1.2c2.6,7.1,4,14.5,4,22.1c0,7.6-1.3,15-4,22.1
				C254.3,182.4,253.6,182.9,252.8,182.9z M230.6,179.2h20.9c2.2-6.3,3.3-12.9,3.3-19.6c0-6.7-1.1-13.3-3.3-19.6h-20.9
				c1.2,6.3,1.8,12.9,1.8,19.6C232.4,166.3,231.8,172.9,230.6,179.2z"/>
		</g>
		<g>
			<path fill="#F1F2F2" d="M219.7,203.9c-6.4,10.8-15.1,17.4-24.7,17.4c0,0-0.1,0.1-0.1,0.1c0.1,0,0.1-0.1,0.2-0.1
				c16.7,0,31.7-6.7,42.8-17.4c6.6-6.4,11.7-14.2,15-22.9h-24.5C226.4,189.8,223.5,197.6,219.7,203.9z"/>
			<path d="M194.9,223.3c-0.5,0-1-0.2-1.4-0.6c-0.6-0.7-0.8-1.6-0.2-2.3c0.1-0.1,0.2-0.3,0.3-0.3c0.3-0.4,0.8-0.5,1.3-0.6
				c8.6,0,16.8-5.9,23.1-16.5c3.7-6.2,6.6-13.9,8.4-22.3c0.2-0.9,1-1.5,1.8-1.5h24.5c0.6,0,1.2,0.3,1.5,0.8c0.4,0.5,0.4,1.2,0.2,1.7
				c-3.3,8.8-8.6,17-15.4,23.6c-11.8,11.5-27.4,17.9-43.9,18C195.2,223.3,195,223.3,194.9,223.3z M229.8,182.9
				c-1.9,8.2-4.8,15.8-8.5,22c-3.1,5.2-6.7,9.4-10.6,12.5c9.6-2.6,18.5-7.7,25.8-14.8c5.7-5.6,10.4-12.3,13.5-19.7H229.8z"/>
		</g>
		<g>
			<polygon fill="#F1F2F2" points="194.9,221.5 194.9,221.5 194.9,221.5 			"/>
		</g>
		<g>
			<path fill="#F1F2F2" d="M159.2,159.6c0,7.6,0.8,14.8,2.2,21.5h66.9c1.4-6.7,2.2-13.9,2.2-21.5c0-7.6-0.8-14.8-2.2-21.5h-66.9
				C160,144.8,159.2,152,159.2,159.6z"/>
			<path d="M228.3,182.9h-66.9c-0.9,0-1.7-0.6-1.8-1.5c-1.5-7-2.3-14.4-2.3-21.9c0-7.5,0.8-14.8,2.3-21.9c0.2-0.9,1-1.5,1.8-1.5
				h66.9c0.9,0,1.7,0.6,1.8,1.5c1.5,7,2.3,14.4,2.3,21.9c0,7.5-0.8,14.9-2.3,21.9C230,182.3,229.2,182.9,228.3,182.9z M163,179.2
				h63.8c1.2-6.3,1.9-12.9,1.9-19.6c0-6.7-0.6-13.3-1.9-19.6H163c-1.2,6.3-1.9,12.9-1.9,19.6C161.1,166.3,161.7,172.9,163,179.2z"/>
		</g>
		<g>
			<path fill="#F1F2F2" d="M170.1,115.2c-3.8,6.4-6.8,14.2-8.6,22.9h66.9c-1.9-8.7-4.8-16.5-8.6-22.9c-6.4-10.7-15.1-17.4-24.7-17.4
				c0,0-0.1-0.1-0.1-0.1h0c0,0-0.1,0.1-0.1,0.1C185.2,97.8,176.5,104.5,170.1,115.2z"/>
			<path d="M228.3,140h-66.9c-0.6,0-1.1-0.3-1.5-0.7c-0.4-0.4-0.5-1-0.4-1.6c1.9-8.8,4.9-16.9,8.9-23.5c6.9-11.5,15.9-18,25.6-18.3
				c0.2-0.1,0.5-0.2,0.8-0.2c0.3,0,0.5,0.1,0.7,0.2c9.7,0.3,18.8,6.8,25.6,18.3c3.9,6.6,7,14.7,8.9,23.5c0.1,0.6,0,1.1-0.4,1.6
				C229.4,139.7,228.9,140,228.3,140z M163.8,136.2h62.1c-1.8-7.5-4.5-14.4-7.9-20.1c-6.3-10.6-14.5-16.5-23.1-16.5
				c-0.1,0-0.1,0-0.2,0c-8.6,0-16.8,5.9-23.1,16.5C168.3,121.8,165.6,128.7,163.8,136.2z"/>
		</g>
		<g>
			<path fill="#F1F2F2" d="M219.7,203.9c3.8-6.4,6.8-14.2,8.6-22.9h-66.9c1.9,8.7,4.8,16.5,8.6,22.9c6.4,10.8,15.1,17.4,24.7,17.4
				c0,0,0.1,0.1,0.1,0.1h0c0,0,0.1-0.1,0.1-0.1C204.6,221.3,213.3,214.7,219.7,203.9z"/>
			<path d="M194.8,223.4c-0.3,0-0.5-0.1-0.7-0.2c-9.7-0.3-18.8-6.8-25.6-18.3c-3.9-6.6-7-14.7-8.9-23.5c-0.1-0.6,0-1.1,0.4-1.6
				c0.4-0.4,0.9-0.7,1.5-0.7h66.9c0.6,0,1.1,0.3,1.5,0.7c0.4,0.4,0.5,1,0.4,1.6c-1.9,8.8-4.9,16.9-8.9,23.5
				c-6.9,11.5-15.9,18-25.6,18.3C195.4,223.4,195.2,223.4,194.8,223.4C194.9,223.4,194.9,223.4,194.8,223.4z M163.8,182.9
				c1.8,7.5,4.5,14.4,7.9,20c6.3,10.6,14.5,16.5,23.1,16.5c0.1,0,0.1,0,0.2,0c8.6,0,16.8-5.9,23.1-16.5c3.4-5.7,6.1-12.5,7.9-20
				H163.8z"/>
		</g>
	</g>
	<g>
		<rect x="1206.6" y="250.6" fill="#FFC2BE" width="114.8" height="31"/>
		<path d="M1321.4,283.5h-114.8c-1,0-1.9-0.8-1.9-1.9v-31c0-1,0.8-1.9,1.9-1.9h114.8c1,0,1.9,0.8,1.9,1.9v31
			C1323.2,282.7,1322.4,283.5,1321.4,283.5z M1208.5,279.8h111v-27.3h-111V279.8z"/>
	</g>
	<g>
		<rect x="1206.6" y="189.3" fill="#FFC2BE" width="57.4" height="31"/>
		<path d="M1264,222.2h-57.4c-1,0-1.9-0.8-1.9-1.9v-31c0-1,0.8-1.9,1.9-1.9h57.4c1,0,1.9,0.8,1.9,1.9v31
			C1265.8,221.4,1265,222.2,1264,222.2z M1208.5,218.5h53.6v-27.3h-53.6V218.5z"/>
	</g>
	<g>
		<path d="M1264,620.3c-1,0-1.9-0.8-1.9-1.9V504.1c0-1,0.8-1.9,1.9-1.9s1.9,0.8,1.9,1.9v114.2C1265.8,619.4,1265,620.3,1264,620.3z"
			/>
	</g>
	<g>
		<path d="M1297.5,620.3c-1,0-1.9-0.8-1.9-1.9v-67.3c0-1,0.8-1.9,1.9-1.9s1.9,0.8,1.9,1.9v67.3
			C1299.4,619.4,1298.6,620.3,1297.5,620.3z"/>
	</g>
</g>
</svg>
